<?xml version="1.0" encoding="UTF-8"?>
<svg id="Calque_1" data-name="Calque 1" xmlns="http://www.w3.org/2000/svg" baseProfile="tiny" version="1.2" viewBox="0 0 54.8 375">
  <g>
    <polygon points="36.1 9.6 18.8 13.9 9.4 10.9 9.4 14.3 18.8 17.2 36 13.1 45.4 17.3 45.4 13.8 36.1 9.6" fill="#1d1d1b" stroke-width="0"/>
    <path d="M15.8,33.4c-3,0-4.1,3.5-4.1,3.5h8.1s-1-3.5-4-3.5" fill="#1d1d1b" stroke-width="0"/>
    <polygon points="24.2 36.9 41 36.9 32.8 31.1 24.2 36.9" fill="#1d1d1b" stroke-width="0"/>
    <path d="M20.7,22.8c-.4-.9-1.8-3.6-4.9-3.9-.3,0-.6,0-.9,0-2.3,0-3.8,1.3-4.7,2.4-.6.8-.9,1.4-.9,1.4v14.4h0c.3-1,2-5.5,6.4-5.5s5.3,2.9,6,4.6l11-7.5,11.3,8.1v-13l-11.3-6.4-12.1,5.4Z" fill="#1d1d1b" stroke-width="0"/>
  </g>
  <g>
    <path d="M17.9,130.3v1.1h3.9v-1.1c0-1.2-.8-2-1.9-2s-2,.8-2,2M22.8,130.3v2.1h-5.7v-2.1c0-1.8,1.2-3.1,2.9-3.1s2.9,1.2,2.9,3.1" fill="#1d1d1b" stroke-width="0"/>
    <polygon points="17.9 121.4 17.9 124.7 19.4 124.7 19.4 121.8 20.3 121.8 20.3 124.7 21.9 124.7 21.9 121.4 22.8 121.4 22.8 125.7 17 125.7 17 121.4 17.9 121.4" fill="#1d1d1b" stroke-width="0"/>
    <path d="M19.4,117.7c.3-1.2.7-1.8,1.7-1.8s1.7.8,1.7,2.1-.3,1.7-.9,2.4l-.7-.6c.5-.5.7-1.1.7-1.8s-.3-1-.7-1-.6.2-.9,1.3c-.3,1.2-.7,1.9-1.7,1.9s-1.7-.8-1.7-2,.3-1.5.7-2.1l.8.5c-.4.5-.6,1-.6,1.6s.3.9.7.9.6-.3.9-1.4" fill="#1d1d1b" stroke-width="0"/>
    <path d="M18.2,109l2.3,1v-2l-2.3,1ZM22.8,106v1.1l-1.4.6v2.7l1.4.6v1l-5.8-2.5v-.9l5.8-2.5Z" fill="#1d1d1b" stroke-width="0"/>
    <path d="M17.9,102.2v1.5h1.9v-1.5c0-.7-.4-1.2-1-1.2s-1,.4-1,1.2M22.8,101l-2,1.4v1.3h2v1h-5.7v-2.6c0-1.3.7-2.1,1.8-2.1s1.5.6,1.7,1.4l2.2-1.6v1.2Z" fill="#1d1d1b" stroke-width="0"/>
    <polygon points="22.8 96 22.8 97 18 97 18 98.9 17 98.9 17 94.2 18 94.2 18 96 22.8 96" fill="#1d1d1b" stroke-width="0"/>
    <path d="M19.4,90.7c.3-1.2.7-1.8,1.7-1.8s1.7.8,1.7,2.1-.3,1.7-.9,2.4l-.7-.6c.5-.5.7-1.1.7-1.8s-.3-1-.7-1-.6.2-.9,1.3c-.3,1.2-.7,1.9-1.7,1.9s-1.7-.8-1.7-2,.3-1.5.7-2.1l.8.5c-.4.5-.6,1-.6,1.6s.3.9.7.9.6-.3.9-1.4" fill="#1d1d1b" stroke-width="0"/>
    <path d="M34.7,129.8c0,1.7-1.3,2.9-3,2.9s-3-1.2-3-3,.4-1.7.9-2.3l.7.6c-.4.5-.7,1-.7,1.6,0,1.1.9,1.9,2,1.9s2.1-.8,2.1-1.9-.3-1.2-.7-1.6l.7-.6c.6.6,1,1.3,1,2.3" fill="#1d1d1b" stroke-width="0"/>
    <path d="M29.7,123.5c0,1.1.9,1.9,2,1.9s2.1-.8,2.1-2-.9-1.9-2-1.9-2.1.8-2.1,2M34.7,123.5c0,1.8-1.3,3-3,3s-3-1.2-3-3,1.3-3,3-3,3,1.2,3,3" fill="#1d1d1b" stroke-width="0"/>
    <polygon points="28.9 115.1 28.9 114.1 34.6 114.1 34.6 114.9 30.5 118.1 34.6 118.1 34.6 119.1 28.9 119.1 28.9 118.2 32.9 115.1 28.9 115.1" fill="#1d1d1b" stroke-width="0"/>
    <polygon points="34.6 109.9 34.6 110.9 29.8 110.9 29.8 112.7 28.9 112.7 28.9 108 29.8 108 29.8 109.9 34.6 109.9" fill="#1d1d1b" stroke-width="0"/>
    <polygon points="29.8 102.4 29.8 105.6 31.3 105.6 31.3 102.8 32.2 102.8 32.2 105.6 33.7 105.6 33.7 102.3 34.6 102.3 34.6 106.6 28.9 106.6 28.9 102.4 29.8 102.4" fill="#1d1d1b" stroke-width="0"/>
    <polygon points="33.2 97.8 33.2 97.8 30.5 99.6 34.6 99.6 34.6 100.6 28.9 100.6 28.9 99.6 31.6 97.8 28.9 96.1 28.9 95 34.6 95 34.6 96 30.5 96 33.2 97.8" fill="#1d1d1b" stroke-width="0"/>
    <path d="M29.8,90.6v1.2h2.1v-1.2c0-.8-.4-1.2-1-1.2s-1,.5-1,1.2M32.8,90.7v1.1h1.8v1h-5.7v-2.3c0-1.3.8-2.2,1.9-2.2s2,1,2,2.3" fill="#1d1d1b" stroke-width="0"/>
    <path d="M29.7,84.3c0,1.1.9,1.9,2,1.9s2.1-.8,2.1-2-.9-1.9-2-1.9-2.1.8-2.1,2M34.7,84.3c0,1.8-1.3,3-3,3s-3-1.2-3-3,1.3-3,3-3,3,1.2,3,3" fill="#1d1d1b" stroke-width="0"/>
    <path d="M29.8,77.4v1.5h1.9v-1.5c0-.7-.4-1.2-1-1.2s-1,.4-1,1.2M34.6,76.2l-2,1.4v1.3h2v1h-5.7v-2.6c0-1.3.7-2.1,1.8-2.1s1.5.6,1.7,1.4l2.2-1.6v1.2Z" fill="#1d1d1b" stroke-width="0"/>
    <path d="M30.1,71.1l2.3,1v-2l-2.3,1ZM34.6,68.1v1.1l-1.4.6v2.7l1.4.6v1l-5.8-2.5v-.9l5.8-2.5Z" fill="#1d1d1b" stroke-width="0"/>
    <rect x="28.9" y="65.9" width="5.7" height="1" fill="#1d1d1b" stroke-width="0"/>
    <polygon points="28.9 59.8 28.9 58.8 34.6 58.8 34.6 59.7 30.5 62.8 34.6 62.8 34.6 63.8 28.9 63.8 28.9 62.9 32.9 59.8 28.9 59.8" fill="#1d1d1b" stroke-width="0"/>
    <path d="M31.3,55c.3-1.2.7-1.8,1.7-1.8s1.7.8,1.7,2.1-.3,1.7-.9,2.4l-.7-.6c.5-.6.7-1.1.7-1.8s-.3-1-.7-1-.6.2-.9,1.3c-.3,1.2-.7,1.9-1.7,1.9s-1.7-.8-1.7-2,.3-1.5.7-2.1l.8.5c-.4.5-.6,1-.6,1.6s.3.9.7.9.6-.3.9-1.4" fill="#1d1d1b" stroke-width="0"/>
    <path d="M19.4,185.3c.3-1.2.7-1.8,1.7-1.8s1.7.8,1.7,2.1-.3,1.7-.9,2.4l-.7-.6c.5-.6.7-1.1.7-1.8s-.3-1-.7-1-.6.2-.9,1.3c-.3,1.2-.7,1.9-1.7,1.9s-1.7-.8-1.7-2,.3-1.5.7-2.1l.8.5c-.4.5-.6,1-.6,1.6s.3.9.7.9.6-.3.9-1.4" fill="#1d1d1b" stroke-width="0"/>
    <polygon points="22.8 179.6 22.8 180.7 18 180.7 18 182.5 17 182.5 17 177.8 18 177.8 18 179.6 22.8 179.6" fill="#1d1d1b" stroke-width="0"/>
    <path d="M20.3,171.6c1.7,0,2.6,1,2.6,2.5s-.9,2.4-2.5,2.4h-3.3v-1h3.3c1.1,0,1.6-.6,1.6-1.5s-.5-1.4-1.6-1.4h-3.3v-1h3.3Z" fill="#1d1d1b" stroke-width="0"/>
    <path d="M17.9,167.7v1.1h3.9v-1.1c0-1.2-.8-2-1.9-2s-2,.8-2,2M22.8,167.7v2.1h-5.7v-2.1c0-1.8,1.2-3.1,2.9-3.1s2.9,1.2,2.9,3.1" fill="#1d1d1b" stroke-width="0"/>
    <rect x="17" y="162.1" width="5.7" height="1" fill="#1d1d1b" stroke-width="0"/>
    <path d="M17.9,157.5c0,1.1.9,1.9,2,1.9s2.1-.8,2.1-2-.9-1.9-2-1.9-2.1.8-2.1,2M22.9,157.5c0,1.8-1.3,3-3,3s-3-1.2-3-3,1.3-3,3-3,3,1.2,3,3" fill="#1d1d1b" stroke-width="0"/>
    <polygon points="28.9 183.5 28.9 182.5 34.6 182.5 34.6 183.4 30.5 186.5 34.6 186.5 34.6 187.5 28.9 187.5 28.9 186.6 32.9 183.5 28.9 183.5" fill="#1d1d1b" stroke-width="0"/>
    <path d="M30.1,178.2l2.3,1v-2l-2.3,1ZM34.6,175.2v1.1l-1.4.6v2.7l1.4.6v1l-5.8-2.5v-.9l5.8-2.5Z" fill="#1d1d1b" stroke-width="0"/>
    <polygon points="34.6 172.2 34.6 173.2 29.8 173.2 29.8 175.1 28.9 175.1 28.9 170.4 29.8 170.4 29.8 172.2 34.6 172.2" fill="#1d1d1b" stroke-width="0"/>
    <rect x="28.9" y="167.9" width="5.7" height="1" fill="#1d1d1b" stroke-width="0"/>
    <path d="M29.7,163.3c0,1.1.9,1.9,2,1.9s2.1-.8,2.1-2-.9-1.9-2-1.9-2.1.8-2.1,2M34.7,163.3c0,1.8-1.3,3-3,3s-3-1.2-3-3,1.3-3,3-3,3,1.2,3,3" fill="#1d1d1b" stroke-width="0"/>
    <polygon points="28.9 154.7 28.9 153.7 34.6 153.7 34.6 154.6 30.5 157.8 34.6 157.8 34.6 158.8 28.9 158.8 28.9 157.8 32.9 154.7 28.9 154.7" fill="#1d1d1b" stroke-width="0"/>
    <path d="M30.1,149.5l2.3,1v-2l-2.3,1ZM34.6,146.4v1.1l-1.4.6v2.7l1.4.6v1l-5.8-2.5v-.9l5.8-2.5Z" fill="#1d1d1b" stroke-width="0"/>
    <polygon points="28.9 145.1 28.9 144.1 33.7 144.1 33.7 141.1 34.6 141.1 34.6 145.1 28.9 145.1" fill="#1d1d1b" stroke-width="0"/>
    <polygon points="20.6 77.5 20.6 78.1 17.8 78.1 17.8 79.1 17.2 79.1 17.2 76.4 17.8 76.4 17.8 77.5 20.6 77.5" fill="#1d1d1b" stroke-width="0"/>
    <path d="M18.5,74.4c0,.5.4.8.8.8s.8-.3.8-.8-.4-.8-.8-.8-.8.3-.8.8M20.6,74.4c0,.8-.6,1.3-1.3,1.3s-1.3-.6-1.3-1.3.6-1.3,1.3-1.3,1.3.6,1.3,1.3" fill="#1d1d1b" stroke-width="0"/>
    <path d="M18,70.6v-.6h2.5v.6h-.4c.2.2.4.4.4.8,0,.6-.4.9-1,.9h-1.6v-.6h1.4c.4,0,.6-.2.6-.5s-.2-.6-.6-.6h-1.4Z" fill="#1d1d1b" stroke-width="0"/>
    <path d="M20.6,68.4v.6h-2.5v-.6h.6c-.4-.2-.6-.4-.6-.9h.6c0,.5.3.9,1,.9h1Z" fill="#1d1d1b" stroke-width="0"/>
    <path d="M20.6,65.6c0,.7-.6,1.3-1.3,1.3s-1.3-.5-1.3-1.3.2-.8.4-1l.4.4c-.2.2-.3.4-.3.6,0,.4.4.7.8.7s.8-.3.8-.7-.1-.5-.3-.6l.3-.3c.3.2.5.5.5,1" fill="#1d1d1b" stroke-width="0"/>
    <path d="M18.5,62.5c0,.5.4.8.8.8s.8-.3.8-.8-.4-.8-.8-.8-.8.3-.8.8M20.6,62.5c0,.8-.6,1.3-1.3,1.3s-1.3-.6-1.3-1.3.6-1.3,1.3-1.3,1.3.6,1.3,1.3" fill="#1d1d1b" stroke-width="0"/>
    <path d="M18,60.3v-.6h2.5v.6h-2.5ZM17.1,60.3v-.6h.5v.6h-.5Z" fill="#1d1d1b" stroke-width="0"/>
    <path d="M20.6,58.1v.6h-2.5v-.6h.4c-.2-.2-.4-.4-.4-.8,0-.6.4-.9,1-.9h1.6v.6h-1.4c-.4,0-.6.2-.6.5s.2.6.6.6h1.4Z" fill="#1d1d1b" stroke-width="0"/>
    <path d="M18.5,54.3c0,.4.3.7.7.7s.7-.3.7-.7-.3-.7-.7-.7-.7.3-.7.7M21.8,54.6c0,.4-.3.7-.3.7l-.4-.3s.2-.4.2-.5c.1-.6-.1-1-1.3-1h-.2c.3.2.5.5.5.9,0,.6-.4,1.1-1.2,1.1s-1.2-.6-1.2-1.1.2-.7.4-.9h-.4v-.6h2c1.3,0,1.9.6,1.7,1.6" fill="#1d1d1b" stroke-width="0"/>
  </g>
  <g>
    <path d="M23,301.6c1.5,0,2.6,1.1,2.6,3v4h-5.2v-3.9c0-1.9.9-3.1,2.6-3.1h0ZM28.4,301.4c-.9-2.3-2.7-3.9-5.6-3.9h0c-3.7,0-6,2.6-6,6.8v8.3h18.1v-4h-5.8v-3.1l5.8-3.9v-4.6l-6.5,4.4Z" fill="#1d1d1b" stroke-width="0"/>
    <polygon points="31.3 278.7 31.3 288.5 27.5 288.5 27.5 280 24 280 24 288.5 20.3 288.5 20.3 278.8 16.8 278.8 16.8 292.5 34.9 292.5 34.9 278.7 31.3 278.7" fill="#1d1d1b" stroke-width="0"/>
    <path d="M31.6,266.9c0,2.1-.9,3.8-2.2,5.4l2.8,2.4c1.9-2.2,2.9-4.9,2.9-7.7,0-3.9-2-6.6-5.6-6.6h0c-3.1,0-4.5,2.1-5.4,5.7-.8,3.1-1.2,3.9-2.4,3.9h0c-.9,0-1.6-.8-1.6-2.3s.7-3.1,1.8-4.7l-3-2.1c-1.5,1.8-2.3,4.1-2.3,6.7s2.2,6.3,5.4,6.3h0c3.6,0,4.6-2.3,5.5-6,.8-3,1.3-3.6,2.3-3.6h0c1.1,0,1.7,1,1.7,2.6" fill="#1d1d1b" stroke-width="0"/>
    <polygon points="34.9 239.8 16.8 239.8 16.8 243.7 27.9 243.7 16.8 252.2 16.8 255.8 34.9 255.8 34.9 251.9 23.4 251.9 34.9 243.2 34.9 239.8" fill="#1d1d1b" stroke-width="0"/>
    <path d="M25.9,221.1c3.1,0,5.6,2.2,5.6,5.4s-2.6,5.5-5.7,5.5h0c-3.1,0-5.6-2.2-5.6-5.4s2.6-5.5,5.7-5.5h0ZM25.8,216.9c-5.1,0-9.3,4-9.3,9.6s4.2,9.6,9.3,9.6h0c5.1,0,9.3-4,9.3-9.6s-4.2-9.6-9.3-9.6h0Z" fill="#1d1d1b" stroke-width="0"/>
    <polygon points="16.8 203.2 24.1 207.6 16.8 211.9 16.8 216.6 27.7 209.6 34.9 209.6 34.9 205.6 27.7 205.6 16.8 198.7 16.8 203.2" fill="#1d1d1b" stroke-width="0"/>
    <polygon points="33 352.8 33 362.6 17.5 362.6 17.5 364.5 34.8 364.5 34.8 352.8 33 352.8" fill="#1d1d1b" stroke-width="0"/>
    <polygon points="33 336.8 33 347.5 27 347.5 27 338.1 25.2 338.1 25.2 347.5 19.3 347.5 19.3 336.9 17.5 336.9 17.5 349.5 34.8 349.5 34.8 336.8 33 336.8" fill="#1d1d1b" stroke-width="0"/>
    <polygon points="27.9 326.7 27.9 318.1 24.3 318.1 24.3 326.7 20.4 326.7 20.4 316.9 16.8 316.9 16.8 330.7 34.9 330.7 34.9 326.7 27.9 326.7" fill="#1d1d1b" stroke-width="0"/>
  </g>
</svg>